<?xml version="1.0" encoding="UTF-8" standalone="no"?>
<!-- Created with Inkscape (http://www.inkscape.org/) -->

<svg
   xmlns:dc="http://purl.org/dc/elements/1.1/"
   xmlns:cc="http://creativecommons.org/ns#"
   xmlns:rdf="http://www.w3.org/1999/02/22-rdf-syntax-ns#"
   xmlns:svg="http://www.w3.org/2000/svg"
   xmlns="http://www.w3.org/2000/svg"
   xmlns:xlink="http://www.w3.org/1999/xlink"
   xmlns:sodipodi="http://sodipodi.sourceforge.net/DTD/sodipodi-0.dtd"
   xmlns:inkscape="http://www.inkscape.org/namespaces/inkscape"
   width="398.82452mm"
   height="57.180679mm"
   viewBox="0 0 1413.1578 202.60871"
   id="svg4800"
   version="1.1"
   inkscape:version="0.91 r13725"
   sodipodi:docname="germanium2 (copy).svg">
  <defs
     id="defs4802">
    <clipPath
       clipPathUnits="userSpaceOnUse"
       id="clipPath4623">
      <rect
         style="fill:#939393;fill-opacity:1;stroke:none;stroke-width:9.69999981;stroke-miterlimit:4;stroke-dasharray:none;stroke-opacity:1"
         id="rect4625"
         width="148.76967"
         height="60.924549"
         x="135.22182"
         y="276.15482"
         ry="30.462275"
         rx="10.777832" />
    </clipPath>
    <clipPath
       clipPathUnits="userSpaceOnUse"
       id="clipPath4386">
      <path
         sodipodi:type="inkscape:offset"
         inkscape:radius="2.7336967"
         inkscape:original="M 404.96484 399.53125 C 398.99392 399.53125 394.1875 411.87776 394.1875 427.21484 C 394.1875 442.55193 398.99392 454.89844 404.96484 454.89844 L 532.17773 454.89844 C 538.14865 454.89844 542.95703 442.55193 542.95703 427.21484 C 542.95703 411.87776 538.14865 399.53125 532.17773 399.53125 L 404.96484 399.53125 z "
         xlink:href="#rect4136-1"
         style="fill:#cbcbcb;fill-opacity:1;stroke:none;stroke-width:9.69999981;stroke-miterlimit:4;stroke-dasharray:none;stroke-opacity:1"
         id="path4388"
         inkscape:href="#rect4136-1"
         d="m 404.96484,396.79688 c -2.43484,0 -4.58283,1.28588 -6.21093,3.04882 -1.62811,1.76295 -2.90522,4.0633 -3.96485,6.78516 -2.11924,5.44372 -3.33594,12.62988 -3.33594,20.58398 0,7.95412 1.2167,15.14027 3.33594,20.58399 1.05963,2.72186 2.33674,5.02221 3.96485,6.78515 1.6281,1.76295 3.77609,3.04883 6.21093,3.04883 l 127.21289,0 c 2.43485,0 4.58266,-1.28594 6.21094,-3.04883 1.62828,-1.76288 2.90495,-4.06133 3.96485,-6.7832 2.11978,-5.44373 3.33789,-12.63171 3.33789,-20.58594 0,-7.95422 -1.21811,-15.1422 -3.33789,-20.58593 -1.0599,-2.72187 -2.33657,-5.02032 -3.96485,-6.78321 -1.62828,-1.76288 -3.77609,-3.04883 -6.21094,-3.04882 l -127.21289,0 z"
         transform="matrix(0.99885387,0,0,1.0006656,-258.33934,-120.89367)" />
    </clipPath>
    <inkscape:path-effect
       effect="skeletal"
       id="path-effect7571"
       is_visible="true"
       pattern="m 478.4571,436.94236 c 0,5.65954 0,11.31908 0,16.97862 -1.62032,0 -3.24064,0 -4.86096,0 0,0 0,0 0,0 0,-8.20575 0,-16.41151 0,-24.61726 1.07635,0 2.15271,0 3.22906,0 0.35743,1.36471 1.24815,2.58506 2.4652,3.2985 0,0 0,0 0,0 1.50957,0.88493 3.31945,1.11108 5.06928,1.11108 0,1.07635 0,2.15271 0,3.22906 -1.96753,0 -3.93505,0 -5.90258,0 z m 18.31928,-8.15905 c -2.06983,0 -4.17744,0.74581 -5.62458,2.22567 -2.51176,2.56856 -3.02061,6.47208 -3.02061,10.06464 0,3.9621 0.41501,8.26498 3.07375,11.20255 1.49208,1.64858 3.76453,2.47854 5.98807,2.47854 1.85514,0 3.69579,-0.70419 5.11868,-1.89453 1.38563,-1.15916 2.36721,-2.86219 2.41691,-4.66806 l -4.68715,0 c -0.0995,1.39352 -1.58953,2.39625 -2.9866,2.39625 -1.2289,0 -2.44534,-0.68524 -3.05888,-1.75003 -0.90243,-1.56618 -1.00332,-3.45655 -1.00332,-5.26412 0.45875,0.51272 0.89145,1.06095 1.44972,1.46304 0.93806,0.67563 2.1154,0.96733 3.27144,0.96733 2.00139,0 4.01664,-0.85367 5.32273,-2.37015 1.44386,-1.67641 2.03855,-3.95877 2.03855,-6.17125 0,-2.22179 -0.93931,-4.40838 -2.46156,-6.02674 -1.50558,-1.60064 -3.63967,-2.65314 -5.83715,-2.65314 z m 0.1403,3.95763 c 1.04096,0 2.00134,0.64749 2.59122,1.50518 0.62997,0.91602 0.95018,2.03509 0.95018,3.14683 0,1.10538 -0.33755,2.21621 -0.98419,3.11272 -0.61035,0.84617 -1.58405,1.47106 -2.62736,1.47106 -2.15971,0 -3.74972,-2.35383 -3.74972,-4.51354 0,-1.14714 0.36727,-2.29845 1.05434,-3.21707 0.65253,-0.87244 1.67605,-1.50518 2.76553,-1.50518 z m -17.7243,-23.79917 c -1.73606,0 -3.47211,0 -5.20817,0 0,-8.43723 0,-16.87446 0,-25.31169 1.73606,0 3.47211,0 5.20817,0 0,0 0,0 0,0 0,5.74056 0,11.48112 0,17.22168 3.3448,-5.74056 6.6896,-11.48112 10.0344,-17.22168 1.78234,0 3.56469,0 5.34703,0 1e-5,0 1e-5,0 1e-5,0 10e-6,0 10e-6,0 10e-6,0 l 0,25.31169 c 0,0 0,0 0,0 0,0 0,0 -10e-6,0 0,0 0,0 0,0 l -5.20814,0 c -10e-6,0 -10e-6,0 -10e-6,0 0,0 0,0 0,0 -1e-5,0 -1e-5,0 -1e-5,0 l 0,-17.49944 c -3.39109,5.83315 -6.78219,11.66629 -10.17328,17.49944 z m 29.2227,-16.97862 c 0,5.65954 0,11.31908 0,16.97862 -1.62032,0 -3.24064,0 -4.86096,0 0,-8.20575 0,-16.41151 0,-24.61726 1.07635,0 2.15271,0 3.22906,0 0.3567,1.36191 1.25065,2.58652 2.4652,3.2985 0,0 0,0 0,0 1.51014,0.88526 3.3188,1.11108 5.06929,1.11108 0,1.07635 0,2.15271 0,3.22906 -1.96753,0 -3.93506,0 -5.90259,0 z"
       copytype="single_stretched"
       prop_scale="1"
       scale_y_rel="false"
       spacing="0"
       normal_offset="0"
       tang_offset="0"
       prop_units="false"
       vertical_pattern="true"
       fuse_tolerance="0" />
    <inkscape:path-effect
       effect="skeletal"
       id="path-effect7571-5"
       is_visible="true"
       pattern="m 215.86514,315.92538 c 0,5.65954 0,11.31908 0,16.97862 -1.62032,0 -3.24064,0 -4.86096,0 0,0 0,0 0,0 0,-8.20575 0,-16.41151 0,-24.61726 1.07635,0 2.15271,0 3.22906,0 0.35743,1.36471 1.24815,2.58506 2.4652,3.2985 0,0 0,0 0,0 1.50957,0.88493 3.31945,1.11108 5.06928,1.11108 0,1.07635 0,2.15271 0,3.22906 -1.96753,0 -3.93505,0 -5.90258,0 z m 18.31928,-8.15905 c -2.06983,0 -4.17744,0.74581 -5.62458,2.22567 -2.51176,2.56856 -3.02061,6.47208 -3.02061,10.06464 0,3.9621 0.41501,8.26498 3.07375,11.20255 1.49208,1.64858 3.76453,2.47854 5.98807,2.47854 1.85514,0 3.69579,-0.70419 5.11868,-1.89453 1.38563,-1.15916 2.36721,-2.86219 2.41691,-4.66806 l -4.68715,0 c -0.0995,1.39352 -1.58953,2.39625 -2.9866,2.39625 -1.2289,0 -2.44534,-0.68524 -3.05888,-1.75003 -0.90243,-1.56618 -1.00332,-3.45655 -1.00332,-5.26412 0.45875,0.51272 0.89145,1.06095 1.44972,1.46304 0.93806,0.67563 2.1154,0.96733 3.27144,0.96733 2.00139,0 4.01664,-0.85367 5.32273,-2.37015 1.44386,-1.67641 2.03855,-3.95877 2.03855,-6.17125 0,-2.22179 -0.93931,-4.40838 -2.46156,-6.02674 -1.50558,-1.60064 -3.63967,-2.65314 -5.83715,-2.65314 z m 0.1403,3.95763 c 1.04096,0 2.00134,0.64749 2.59122,1.50518 0.62997,0.91602 0.95018,2.03509 0.95018,3.14683 0,1.10538 -0.33755,2.21621 -0.98419,3.11272 -0.61035,0.84617 -1.58405,1.47106 -2.62736,1.47106 -2.15971,0 -3.74972,-2.35383 -3.74972,-4.51354 0,-1.14714 0.36727,-2.29845 1.05434,-3.21707 0.65253,-0.87244 1.67605,-1.50518 2.76553,-1.50518 z m -17.7243,-23.79917 c -1.73606,0 -3.47211,0 -5.20817,0 0,-8.43723 0,-16.87446 0,-25.31169 1.73606,0 3.47211,0 5.20817,0 0,0 0,0 0,0 0,5.74056 0,11.48112 0,17.22168 3.3448,-5.74056 6.6896,-11.48112 10.0344,-17.22168 1.78234,0 3.56469,0 5.34703,0 1e-5,0 1e-5,0 1e-5,0 10e-6,0 10e-6,0 10e-6,0 l 0,25.31169 c 0,0 0,0 0,0 0,0 0,0 -10e-6,0 0,0 0,0 0,0 l -5.20814,0 c -1e-5,0 -1e-5,0 -1e-5,0 0,0 0,0 0,0 -1e-5,0 -1e-5,0 -1e-5,0 l 0,-17.49944 c -3.39109,5.83315 -6.78219,11.66629 -10.17328,17.49944 z m 29.2227,-16.97862 c 0,5.65954 0,11.31908 0,16.97862 -1.62032,0 -3.24064,0 -4.86096,0 0,-8.20575 0,-16.41151 0,-24.61726 1.07635,0 2.15271,0 3.22906,0 0.3567,1.36191 1.25065,2.58652 2.4652,3.2985 0,0 0,0 0,0 1.51014,0.88526 3.3188,1.11108 5.06929,1.11108 0,1.07635 0,2.15271 0,3.22906 -1.96753,0 -3.93506,0 -5.90259,0 z"
       copytype="single_stretched"
       prop_scale="1"
       scale_y_rel="false"
       spacing="0"
       normal_offset="0"
       tang_offset="0"
       prop_units="false"
       vertical_pattern="true"
       fuse_tolerance="0" />
    <clipPath
       clipPathUnits="userSpaceOnUse"
       id="clipPath7741">
      <path
         sodipodi:type="inkscape:offset"
         inkscape:radius="2.7336967"
         inkscape:original="M 404.96484 399.53125 C 398.99392 399.53125 394.1875 411.87776 394.1875 427.21484 C 394.1875 442.55193 398.99392 454.89844 404.96484 454.89844 L 532.17773 454.89844 C 538.14865 454.89844 542.95703 442.55193 542.95703 427.21484 C 542.95703 411.87776 538.14865 399.53125 532.17773 399.53125 L 404.96484 399.53125 z "
         xlink:href="#rect4136-1"
         style="fill:#cbcbcb;fill-opacity:1;stroke:none;stroke-width:9.69999981;stroke-miterlimit:4;stroke-dasharray:none;stroke-opacity:1"
         id="path7743"
         inkscape:href="#rect4136-1"
         d="m 404.96484,396.79688 c -2.43484,0 -4.58283,1.28588 -6.21093,3.04882 -1.62811,1.76295 -2.90522,4.0633 -3.96485,6.78516 -2.11924,5.44372 -3.33594,12.62988 -3.33594,20.58398 0,7.95412 1.2167,15.14027 3.33594,20.58399 1.05963,2.72186 2.33674,5.02221 3.96485,6.78515 1.6281,1.76295 3.77609,3.04883 6.21093,3.04883 l 127.21289,0 c 2.43485,0 4.58266,-1.28594 6.21094,-3.04883 1.62828,-1.76288 2.90495,-4.06133 3.96485,-6.7832 2.11978,-5.44373 3.33789,-12.63171 3.33789,-20.58594 0,-7.95422 -1.21811,-15.1422 -3.33789,-20.58593 -1.0599,-2.72187 -2.33657,-5.02032 -3.96485,-6.78321 -1.62828,-1.76288 -3.77609,-3.04883 -6.21094,-3.04882 l -127.21289,0 z"
         transform="matrix(0.99885387,0,0,1.0006656,0.62543616,-0.30644687)" />
    </clipPath>
    <clipPath
       clipPathUnits="userSpaceOnUse"
       id="clipPath4193">
      <rect
         style="fill:#939393;fill-opacity:1;stroke:none;stroke-width:9.69999981;stroke-miterlimit:4;stroke-dasharray:none;stroke-opacity:1"
         id="rect4195"
         width="7.1160531"
         height="60.924549"
         x="276.72595"
         y="276.15482"
         ry="30.462275"
         rx="0.51553267" />
    </clipPath>
    <clipPath
       clipPathUnits="userSpaceOnUse"
       id="clipPath4386-6">
      <path
         sodipodi:type="inkscape:offset"
         inkscape:radius="2.7336967"
         inkscape:original="M 404.96484 399.53125 C 398.99392 399.53125 394.1875 411.87776 394.1875 427.21484 C 394.1875 442.55193 398.99392 454.89844 404.96484 454.89844 L 532.17773 454.89844 C 538.14865 454.89844 542.95703 442.55193 542.95703 427.21484 C 542.95703 411.87776 538.14865 399.53125 532.17773 399.53125 L 404.96484 399.53125 z "
         xlink:href="#rect4136-1"
         style="fill:#cbcbcb;fill-opacity:1;stroke:none;stroke-width:9.69999981;stroke-miterlimit:4;stroke-dasharray:none;stroke-opacity:1"
         id="path4388-8"
         inkscape:href="#rect4136-1"
         d="m 404.96484,396.79688 c -2.43484,0 -4.58283,1.28588 -6.21093,3.04882 -1.62811,1.76295 -2.90522,4.0633 -3.96485,6.78516 -2.11924,5.44372 -3.33594,12.62988 -3.33594,20.58398 0,7.95412 1.2167,15.14027 3.33594,20.58399 1.05963,2.72186 2.33674,5.02221 3.96485,6.78515 1.6281,1.76295 3.77609,3.04883 6.21093,3.04883 l 127.21289,0 c 2.43485,0 4.58266,-1.28594 6.21094,-3.04883 1.62828,-1.76288 2.90495,-4.06133 3.96485,-6.7832 2.11978,-5.44373 3.33789,-12.63171 3.33789,-20.58594 0,-7.95422 -1.21811,-15.1422 -3.33789,-20.58593 -1.0599,-2.72187 -2.33657,-5.02032 -3.96485,-6.78321 -1.62828,-1.76288 -3.77609,-3.04883 -6.21094,-3.04882 l -127.21289,0 z"
         transform="matrix(0.99885387,0,0,1.0006656,-258.33934,-120.89367)" />
    </clipPath>
    <clipPath
       clipPathUnits="userSpaceOnUse"
       id="clipPath4386-7">
      <path
         sodipodi:type="inkscape:offset"
         inkscape:radius="2.7336967"
         inkscape:original="M 404.96484 399.53125 C 398.99392 399.53125 394.1875 411.87776 394.1875 427.21484 C 394.1875 442.55193 398.99392 454.89844 404.96484 454.89844 L 532.17773 454.89844 C 538.14865 454.89844 542.95703 442.55193 542.95703 427.21484 C 542.95703 411.87776 538.14865 399.53125 532.17773 399.53125 L 404.96484 399.53125 z "
         xlink:href="#rect4136-1"
         style="fill:#cbcbcb;fill-opacity:1;stroke:none;stroke-width:9.69999981;stroke-miterlimit:4;stroke-dasharray:none;stroke-opacity:1"
         id="path4388-2"
         inkscape:href="#rect4136-1"
         d="m 404.96484,396.79688 c -2.43484,0 -4.58283,1.28588 -6.21093,3.04882 -1.62811,1.76295 -2.90522,4.0633 -3.96485,6.78516 -2.11924,5.44372 -3.33594,12.62988 -3.33594,20.58398 0,7.95412 1.2167,15.14027 3.33594,20.58399 1.05963,2.72186 2.33674,5.02221 3.96485,6.78515 1.6281,1.76295 3.77609,3.04883 6.21093,3.04883 l 127.21289,0 c 2.43485,0 4.58266,-1.28594 6.21094,-3.04883 1.62828,-1.76288 2.90495,-4.06133 3.96485,-6.7832 2.11978,-5.44373 3.33789,-12.63171 3.33789,-20.58594 0,-7.95422 -1.21811,-15.1422 -3.33789,-20.58593 -1.0599,-2.72187 -2.33657,-5.02032 -3.96485,-6.78321 -1.62828,-1.76288 -3.77609,-3.04883 -6.21094,-3.04882 l -127.21289,0 z"
         transform="matrix(0.99885387,0,0,1.0006656,-258.33934,-120.89367)" />
    </clipPath>
    <clipPath
       clipPathUnits="userSpaceOnUse"
       id="clipPath4386-7-9">
      <path
         sodipodi:type="inkscape:offset"
         inkscape:radius="2.7336967"
         inkscape:original="M 404.96484 399.53125 C 398.99392 399.53125 394.1875 411.87776 394.1875 427.21484 C 394.1875 442.55193 398.99392 454.89844 404.96484 454.89844 L 532.17773 454.89844 C 538.14865 454.89844 542.95703 442.55193 542.95703 427.21484 C 542.95703 411.87776 538.14865 399.53125 532.17773 399.53125 L 404.96484 399.53125 z "
         xlink:href="#rect4136-1"
         style="fill:#cbcbcb;fill-opacity:1;stroke:none;stroke-width:9.69999981;stroke-miterlimit:4;stroke-dasharray:none;stroke-opacity:1"
         id="path4388-2-9"
         inkscape:href="#rect4136-1"
         d="m 404.96484,396.79688 c -2.43484,0 -4.58283,1.28588 -6.21093,3.04882 -1.62811,1.76295 -2.90522,4.0633 -3.96485,6.78516 -2.11924,5.44372 -3.33594,12.62988 -3.33594,20.58398 0,7.95412 1.2167,15.14027 3.33594,20.58399 1.05963,2.72186 2.33674,5.02221 3.96485,6.78515 1.6281,1.76295 3.77609,3.04883 6.21093,3.04883 l 127.21289,0 c 2.43485,0 4.58266,-1.28594 6.21094,-3.04883 1.62828,-1.76288 2.90495,-4.06133 3.96485,-6.7832 2.11978,-5.44373 3.33789,-12.63171 3.33789,-20.58594 0,-7.95422 -1.21811,-15.1422 -3.33789,-20.58593 -1.0599,-2.72187 -2.33657,-5.02032 -3.96485,-6.78321 -1.62828,-1.76288 -3.77609,-3.04883 -6.21094,-3.04882 l -127.21289,0 z"
         transform="matrix(0.99885387,0,0,1.0006656,-258.33934,-120.89367)" />
    </clipPath>
    <clipPath
       clipPathUnits="userSpaceOnUse"
       id="clipPath4386-7-0">
      <path
         sodipodi:type="inkscape:offset"
         inkscape:radius="2.7336967"
         inkscape:original="M 404.96484 399.53125 C 398.99392 399.53125 394.1875 411.87776 394.1875 427.21484 C 394.1875 442.55193 398.99392 454.89844 404.96484 454.89844 L 532.17773 454.89844 C 538.14865 454.89844 542.95703 442.55193 542.95703 427.21484 C 542.95703 411.87776 538.14865 399.53125 532.17773 399.53125 L 404.96484 399.53125 z "
         xlink:href="#rect4136-1"
         style="fill:#cbcbcb;fill-opacity:1;stroke:none;stroke-width:9.69999981;stroke-miterlimit:4;stroke-dasharray:none;stroke-opacity:1"
         id="path4388-2-0"
         inkscape:href="#rect4136-1"
         d="m 404.96484,396.79688 c -2.43484,0 -4.58283,1.28588 -6.21093,3.04882 -1.62811,1.76295 -2.90522,4.0633 -3.96485,6.78516 -2.11924,5.44372 -3.33594,12.62988 -3.33594,20.58398 0,7.95412 1.2167,15.14027 3.33594,20.58399 1.05963,2.72186 2.33674,5.02221 3.96485,6.78515 1.6281,1.76295 3.77609,3.04883 6.21093,3.04883 l 127.21289,0 c 2.43485,0 4.58266,-1.28594 6.21094,-3.04883 1.62828,-1.76288 2.90495,-4.06133 3.96485,-6.7832 2.11978,-5.44373 3.33789,-12.63171 3.33789,-20.58594 0,-7.95422 -1.21811,-15.1422 -3.33789,-20.58593 -1.0599,-2.72187 -2.33657,-5.02032 -3.96485,-6.78321 -1.62828,-1.76288 -3.77609,-3.04883 -6.21094,-3.04882 l -127.21289,0 z"
         transform="matrix(0.99885387,0,0,1.0006656,-258.33934,-120.89367)" />
    </clipPath>
    <clipPath
       clipPathUnits="userSpaceOnUse"
       id="clipPath4271">
      <rect
         style="fill:#939393;fill-opacity:1;stroke:none;stroke-width:9.69999981;stroke-miterlimit:4;stroke-dasharray:none;stroke-opacity:1"
         id="rect4273"
         width="148.76967"
         height="55.368526"
         x="394.18661"
         y="399.53027"
         ry="27.684263"
         rx="10.777832" />
    </clipPath>
  </defs>
  <sodipodi:namedview
     id="base"
     pagecolor="#ffffff"
     bordercolor="#666666"
     borderopacity="1.0"
     inkscape:pageopacity="0.0"
     inkscape:pageshadow="2"
     inkscape:zoom="1.4142136"
     inkscape:cx="1023.7499"
     inkscape:cy="157.1485"
     inkscape:document-units="px"
     inkscape:current-layer="layer1"
     showgrid="false"
     fit-margin-top="20"
     fit-margin-right="20"
     fit-margin-left="20"
     fit-margin-bottom="20"
     inkscape:window-width="1920"
     inkscape:window-height="1056"
     inkscape:window-x="0"
     inkscape:window-y="24"
     inkscape:window-maximized="1"
     inkscape:snap-bbox="true"
     inkscape:object-paths="true"
     inkscape:snap-intersection-paths="true"
     inkscape:object-nodes="true"
     inkscape:snap-smooth-nodes="true" />
  <metadata
     id="metadata4805">
    <rdf:RDF>
      <cc:Work
         rdf:about="">
        <dc:format>image/svg+xml</dc:format>
        <dc:type
           rdf:resource="http://purl.org/dc/dcmitype/StillImage" />
        <dc:title />
      </cc:Work>
    </rdf:RDF>
  </metadata>
  <g
     inkscape:label="Layer 1"
     inkscape:groupmode="layer"
     id="layer1"
     transform="translate(238.00745,-325.8884)">
    <rect
       style="color:#000000;clip-rule:nonzero;display:inline;overflow:visible;visibility:visible;opacity:1;isolation:auto;mix-blend-mode:normal;color-interpolation:sRGB;color-interpolation-filters:linearRGB;solid-color:#000000;solid-opacity:1;fill:#ffffff;fill-opacity:1;fill-rule:nonzero;stroke:none;stroke-width:9.69999981;stroke-linecap:butt;stroke-linejoin:miter;stroke-miterlimit:4;stroke-dasharray:none;stroke-dashoffset:0;stroke-opacity:1;color-rendering:auto;image-rendering:auto;shape-rendering:auto;text-rendering:auto;enable-background:accumulate"
       id="rect4162"
       width="1583.4355"
       height="280.71024"
       x="-1292.8521"
       y="-576.63623"
       rx="0"
       ry="0"
       transform="scale(-1,-1)" />
    <rect
       style="fill:#8d8d8d;fill-opacity:1;stroke:none;stroke-width:9.69999981;stroke-miterlimit:4;stroke-dasharray:none;stroke-opacity:1"
       id="rect4136"
       width="148.76967"
       height="55.368526"
       x="394.18661"
       y="399.53027"
       ry="19.006559"
       rx="25.27784" />
    <rect
       style="fill:#828282;fill-opacity:1;stroke:none;stroke-width:9.69999981;stroke-miterlimit:4;stroke-dasharray:none;stroke-opacity:1"
       id="rect4159"
       width="598.01929"
       height="9.8341208"
       x="-167.14131"
       y="422.29749"
       rx="0"
       ry="0" />
    <rect
       style="fill:#828282;fill-opacity:1;stroke:none;stroke-width:9.69999981;stroke-miterlimit:4;stroke-dasharray:none;stroke-opacity:1"
       id="rect4159-7"
       width="565.20673"
       height="9.8341208"
       x="539.07745"
       y="422.29749"
       rx="0"
       ry="0" />
    <path
       sodipodi:type="inkscape:offset"
       inkscape:radius="2.7336967"
       inkscape:original="M 404.96484 399.53125 C 398.99392 399.53125 394.1875 411.87776 394.1875 427.21484 C 394.1875 442.55193 398.99392 454.89844 404.96484 454.89844 L 532.17773 454.89844 C 538.14865 454.89844 542.95703 442.55193 542.95703 427.21484 C 542.95703 411.87776 538.14865 399.53125 532.17773 399.53125 L 404.96484 399.53125 z "
       xlink:href="#rect4136-1"
       style="fill:#cbcbcb;fill-opacity:1;stroke:none;stroke-width:9.69999981;stroke-miterlimit:4;stroke-dasharray:none;stroke-opacity:1"
       id="path4155"
       inkscape:href="#rect4136-1"
       d="m 404.96484,396.79688 c -2.43484,0 -4.58283,1.28588 -6.21093,3.04882 -1.62811,1.76295 -2.90522,4.0633 -3.96485,6.78516 -2.11924,5.44372 -3.33594,12.62988 -3.33594,20.58398 0,7.95412 1.2167,15.14027 3.33594,20.58399 1.05963,2.72186 2.33674,5.02221 3.96485,6.78515 1.6281,1.76295 3.77609,3.04883 6.21093,3.04883 l 127.21289,0 c 2.43485,0 4.58266,-1.28594 6.21094,-3.04883 1.62828,-1.76288 2.90495,-4.06133 3.96485,-6.7832 2.11978,-5.44373 3.33789,-12.63171 3.33789,-20.58594 0,-7.95422 -1.21811,-15.1422 -3.33789,-20.58593 -1.0599,-2.72187 -2.33657,-5.02032 -3.96485,-6.78321 -1.62828,-1.76288 -3.77609,-3.04883 -6.21094,-3.04882 l -127.21289,0 z"
       transform="matrix(0.99885387,0,0,1.0006656,0.62543157,-0.30644906)" />
    <path
       style="fill:#44b5bd;fill-opacity:1;stroke:none;stroke-width:9.69999981;stroke-miterlimit:4;stroke-dasharray:none;stroke-opacity:1"
       d="m 417.84585,397.02393 c 3.82568,-0.005 6.92819,13.51344 6.928,30.19115 -5e-5,16.67701 -3.10247,30.19481 -6.928,30.18936 l -13.49682,0 c 3.82552,0.005 6.92795,-13.51235 6.928,-30.18936 1.8e-4,-16.67771 -3.10232,-30.19682 -6.928,-30.19115 l 13.49682,0 z"
       id="path4326-4-2-4-5-6"
       inkscape:connector-curvature="0" />
    <path
       style="fill:#50ce6a;fill-opacity:1;stroke:none;stroke-width:9.69999981;stroke-miterlimit:4;stroke-dasharray:none;stroke-opacity:1"
       d="m 452.68533,397.0044 0,0.0125 c 0.0122,9.1e-4 0.0296,0.007 0.0424,0.009 l -12.32823,0 c 2.40508,-0.005 4.35578,13.51166 4.35566,30.18936 -3e-5,16.41823 -1.8909,29.76448 -4.2443,30.16985 l -14.14138,0 c 2.40498,0.005 4.35406,-13.51234 4.35409,-30.18937 1.2e-4,-16.6777 -1.94901,-30.19681 -4.35409,-30.19114 l 26.26413,0 0.0518,0 z"
       id="path4326-4-9-5"
       inkscape:connector-curvature="0" />
    <path
       style="fill:#b75f4b;fill-opacity:1;stroke:none;stroke-width:9.69999981;stroke-miterlimit:4;stroke-dasharray:none;stroke-opacity:1"
       d="m 464.58179,397.02393 c 1.961,-0.005 3.5517,13.51344 3.5516,30.19115 -2e-5,16.67701 -1.59066,30.19481 -3.5516,30.18936 l -14.30893,0 c 1.96094,0.005 3.54956,-13.51235 3.54959,-30.18936 9e-5,-16.67771 -1.58858,-30.19682 -3.54959,-30.19115 l 14.30893,0 z"
       id="path4326-4-2-0-5-1"
       inkscape:connector-curvature="0" />
    <rect
       style="fill:#aeaeae;fill-opacity:1;stroke:none;stroke-width:9.69999981;stroke-miterlimit:4;stroke-dasharray:none;stroke-opacity:1"
       id="rect4136-1"
       width="148.76967"
       height="55.368526"
       x="394.18661"
       y="399.53027"
       ry="27.684263"
       rx="10.777832" />
    <rect
       style="fill:#828282;fill-opacity:1;stroke:none;stroke-width:9.69999981;stroke-miterlimit:4;stroke-dasharray:none;stroke-opacity:1"
       id="rect4159-0"
       width="598.01929"
       height="8.5714302"
       x="-19.141312"
       y="422.9187"
       rx="0"
       ry="0"
       clip-path="url(#clipPath4271)"
       transform="matrix(1,0,0,1.1473139,0,-62.923028)" />
    <rect
       style="fill:#de4848;fill-opacity:1;stroke:none;stroke-width:9.69999981;stroke-miterlimit:4;stroke-dasharray:none;stroke-opacity:1"
       id="rect4136-1-2"
       width="41.573059"
       height="15.898412"
       x="486.77502"
       y="419.26532"
       ry="7.9492059"
       rx="3.9295609" />
    <path
       style="fill:#50ce6a;fill-opacity:1;stroke:none;stroke-width:9.69999981;stroke-miterlimit:4;stroke-dasharray:none;stroke-opacity:1"
       d="m 414.41188,397.0044 0,0.0125 c -0.0122,9.1e-4 -0.0296,0.007 -0.0424,0.009 l 12.32823,0 c -2.40508,-0.005 -4.35578,13.51166 -4.35566,30.18936 3e-5,16.41822 1.8909,29.76447 4.2443,30.16984 l 14.14138,0 c -2.40498,0.005 -4.35406,-13.51234 -4.35409,-30.18936 -1.2e-4,-16.6777 1.94901,-30.19681 4.35409,-30.19114 l -26.26413,0 -0.0518,0 z"
       id="path4326-4-9"
       inkscape:connector-curvature="0" />
    <path
       style="fill:#b75f4b;fill-opacity:1;stroke:none;stroke-width:9.69999981;stroke-miterlimit:4;stroke-dasharray:none;stroke-opacity:1"
       d="m 449.82446,397.02393 c -1.961,-0.005 -3.5517,13.51343 -3.5516,30.19114 2e-5,16.67701 1.59066,30.19481 3.5516,30.18936 l 14.30893,0 c -1.96094,0.005 -3.54956,-13.51235 -3.54959,-30.18936 -9e-5,-16.67771 1.58858,-30.19681 3.54959,-30.19114 l -14.30893,0 z"
       id="path4326-4-2-0-5"
       inkscape:connector-curvature="0" />
    <path
       style="fill:#44b5bd;fill-opacity:1;stroke:none;stroke-width:9.69999981;stroke-miterlimit:4;stroke-dasharray:none;stroke-opacity:1"
       d="m 405.27703,397.02393 c -3.82568,-0.005 -6.92819,13.51343 -6.928,30.19114 5e-5,16.67701 3.10247,30.19481 6.928,30.18936 l 13.49682,0 c -3.82552,0.005 -6.92795,-13.51235 -6.928,-30.18936 -1.8e-4,-16.67771 3.10232,-30.19681 6.928,-30.19114 l -13.49682,0 z"
       id="path4326-4-2-4-5"
       inkscape:connector-curvature="0" />
    <path
       style="fill:#828282;fill-opacity:1;stroke:none;stroke-width:9.69999981;stroke-miterlimit:4;stroke-dasharray:none;stroke-opacity:1"
       d="m -167.86985,422.29749 c -0.63996,-8.1e-4 -1.15896,2.20092 -1.15893,4.9172 1e-5,2.71617 0.51899,4.91781 1.15893,4.91692 l 2.25777,0 c -0.63994,8.1e-4 -1.15892,-2.20075 -1.15893,-4.91692 -3e-5,-2.71628 0.51897,-4.91812 1.15893,-4.9172 l -2.25777,0 z"
       id="path4326-4-2-4-5-3"
       inkscape:connector-curvature="0" />
    <path
       style="fill:#828282;fill-opacity:1;stroke:none;stroke-width:9.69999981;stroke-miterlimit:4;stroke-dasharray:none;stroke-opacity:1"
       d="m 1104.8992,422.29749 c 0.64,-8.1e-4 1.159,2.20092 1.1589,4.9172 0,2.71617 -0.519,4.91781 -1.1589,4.91692 l -2.2578,0 c 0.64,8.1e-4 1.1589,-2.20075 1.159,-4.91692 0,-2.71628 -0.519,-4.91812 -1.159,-4.9172 l 2.2578,0 z"
       id="path4326-4-2-4-5-3-4"
       inkscape:connector-curvature="0" />
  </g>
</svg>
