<?xml version="1.0" encoding="UTF-8" standalone="no"?>
<!-- Created with Inkscape (http://www.inkscape.org/) -->

<svg
   xmlns:dc="http://purl.org/dc/elements/1.1/"
   xmlns:cc="http://creativecommons.org/ns#"
   xmlns:rdf="http://www.w3.org/1999/02/22-rdf-syntax-ns#"
   xmlns:svg="http://www.w3.org/2000/svg"
   xmlns="http://www.w3.org/2000/svg"
   xmlns:xlink="http://www.w3.org/1999/xlink"
   xmlns:sodipodi="http://sodipodi.sourceforge.net/DTD/sodipodi-0.dtd"
   xmlns:inkscape="http://www.inkscape.org/namespaces/inkscape"
   width="407.7793mm"
   height="58.749935mm"
   viewBox="0 0 1444.8873 208.16906"
   id="svg4800"
   version="1.1"
   inkscape:version="0.91 r13725"
   sodipodi:docname="diode-thin-unlabeled (copy)2.svg">
  <defs
     id="defs4802">
    <clipPath
       clipPathUnits="userSpaceOnUse"
       id="clipPath4623">
      <rect
         style="fill:#939393;fill-opacity:1;stroke:none;stroke-width:9.69999981;stroke-miterlimit:4;stroke-dasharray:none;stroke-opacity:1"
         id="rect4625"
         width="148.76967"
         height="60.924549"
         x="135.22182"
         y="276.15482"
         ry="30.462275"
         rx="10.777832" />
    </clipPath>
    <clipPath
       clipPathUnits="userSpaceOnUse"
       id="clipPath4386">
      <path
         sodipodi:type="inkscape:offset"
         inkscape:radius="2.7336967"
         inkscape:original="M 404.96484 396.74219 C 398.99392 396.74219 394.1875 410.32898 394.1875 427.20508 C 394.1875 444.08118 398.99392 457.66602 404.96484 457.66602 L 532.17773 457.66602 C 538.14865 457.66602 542.95703 444.08118 542.95703 427.20508 C 542.95703 410.32898 538.14865 396.74219 532.17773 396.74219 L 404.96484 396.74219 z "
         xlink:href="#rect4136-1"
         style="fill:#cbcbcb;fill-opacity:1;stroke:none;stroke-width:9.69999981;stroke-miterlimit:4;stroke-dasharray:none;stroke-opacity:1"
         id="path4388"
         inkscape:href="#rect4136-1"
         d="m 404.96484,394.00781 c -2.52948,0 -4.69036,1.449 -6.29687,3.36328 -1.60651,1.91429 -2.861,4.40125 -3.9082,7.36133 -2.09442,5.92016 -3.30665,13.77508 -3.30665,22.47266 0,8.69757 1.2122,16.55099 3.30665,22.4707 1.04722,2.95986 2.30165,5.44723 3.9082,7.36133 1.60654,1.9141 3.76754,3.36328 6.29687,3.36328 l 127.21289,0 c 2.52934,0 4.69015,-1.44924 6.29688,-3.36328 1.60673,-1.91404 2.86071,-4.40146 3.9082,-7.36133 2.09498,-5.91973 3.3086,-13.77302 3.3086,-22.4707 0,-8.69768 -1.21365,-16.55248 -3.3086,-22.47266 -1.04747,-2.96009 -2.30151,-5.4471 -3.9082,-7.36133 -1.60669,-1.91422 -3.76739,-3.36328 -6.29688,-3.36328 l -127.21289,0 z"
         transform="matrix(0.99885387,0,0,1.0006656,-258.33934,-120.89367)" />
    </clipPath>
    <inkscape:path-effect
       effect="skeletal"
       id="path-effect7571"
       is_visible="true"
       pattern="m 478.4571,436.94236 c 0,5.65954 0,11.31908 0,16.97862 -1.62032,0 -3.24064,0 -4.86096,0 0,0 0,0 0,0 0,-8.20575 0,-16.41151 0,-24.61726 1.07635,0 2.15271,0 3.22906,0 0.35743,1.36471 1.24815,2.58506 2.4652,3.2985 0,0 0,0 0,0 1.50957,0.88493 3.31945,1.11108 5.06928,1.11108 0,1.07635 0,2.15271 0,3.22906 -1.96753,0 -3.93505,0 -5.90258,0 z m 18.31928,-8.15905 c -2.06983,0 -4.17744,0.74581 -5.62458,2.22567 -2.51176,2.56856 -3.02061,6.47208 -3.02061,10.06464 0,3.9621 0.41501,8.26498 3.07375,11.20255 1.49208,1.64858 3.76453,2.47854 5.98807,2.47854 1.85514,0 3.69579,-0.70419 5.11868,-1.89453 1.38563,-1.15916 2.36721,-2.86219 2.41691,-4.66806 l -4.68715,0 c -0.0995,1.39352 -1.58953,2.39625 -2.9866,2.39625 -1.2289,0 -2.44534,-0.68524 -3.05888,-1.75003 -0.90243,-1.56618 -1.00332,-3.45655 -1.00332,-5.26412 0.45875,0.51272 0.89145,1.06095 1.44972,1.46304 0.93806,0.67563 2.1154,0.96733 3.27144,0.96733 2.00139,0 4.01664,-0.85367 5.32273,-2.37015 1.44386,-1.67641 2.03855,-3.95877 2.03855,-6.17125 0,-2.22179 -0.93931,-4.40838 -2.46156,-6.02674 -1.50558,-1.60064 -3.63967,-2.65314 -5.83715,-2.65314 z m 0.1403,3.95763 c 1.04096,0 2.00134,0.64749 2.59122,1.50518 0.62997,0.91602 0.95018,2.03509 0.95018,3.14683 0,1.10538 -0.33755,2.21621 -0.98419,3.11272 -0.61035,0.84617 -1.58405,1.47106 -2.62736,1.47106 -2.15971,0 -3.74972,-2.35383 -3.74972,-4.51354 0,-1.14714 0.36727,-2.29845 1.05434,-3.21707 0.65253,-0.87244 1.67605,-1.50518 2.76553,-1.50518 z m -17.7243,-23.79917 c -1.73606,0 -3.47211,0 -5.20817,0 0,-8.43723 0,-16.87446 0,-25.31169 1.73606,0 3.47211,0 5.20817,0 0,0 0,0 0,0 0,5.74056 0,11.48112 0,17.22168 3.3448,-5.74056 6.6896,-11.48112 10.0344,-17.22168 1.78234,0 3.56469,0 5.34703,0 1e-5,0 1e-5,0 1e-5,0 10e-6,0 10e-6,0 10e-6,0 l 0,25.31169 c 0,0 0,0 0,0 0,0 0,0 -10e-6,0 0,0 0,0 0,0 l -5.20814,0 c -10e-6,0 -10e-6,0 -10e-6,0 0,0 0,0 0,0 -1e-5,0 -1e-5,0 -1e-5,0 l 0,-17.49944 c -3.39109,5.83315 -6.78219,11.66629 -10.17328,17.49944 z m 29.2227,-16.97862 c 0,5.65954 0,11.31908 0,16.97862 -1.62032,0 -3.24064,0 -4.86096,0 0,-8.20575 0,-16.41151 0,-24.61726 1.07635,0 2.15271,0 3.22906,0 0.3567,1.36191 1.25065,2.58652 2.4652,3.2985 0,0 0,0 0,0 1.51014,0.88526 3.3188,1.11108 5.06929,1.11108 0,1.07635 0,2.15271 0,3.22906 -1.96753,0 -3.93506,0 -5.90259,0 z"
       copytype="single_stretched"
       prop_scale="1"
       scale_y_rel="false"
       spacing="0"
       normal_offset="0"
       tang_offset="0"
       prop_units="false"
       vertical_pattern="true"
       fuse_tolerance="0" />
    <inkscape:path-effect
       effect="skeletal"
       id="path-effect7571-5"
       is_visible="true"
       pattern="m 215.86514,315.92538 c 0,5.65954 0,11.31908 0,16.97862 -1.62032,0 -3.24064,0 -4.86096,0 0,0 0,0 0,0 0,-8.20575 0,-16.41151 0,-24.61726 1.07635,0 2.15271,0 3.22906,0 0.35743,1.36471 1.24815,2.58506 2.4652,3.2985 0,0 0,0 0,0 1.50957,0.88493 3.31945,1.11108 5.06928,1.11108 0,1.07635 0,2.15271 0,3.22906 -1.96753,0 -3.93505,0 -5.90258,0 z m 18.31928,-8.15905 c -2.06983,0 -4.17744,0.74581 -5.62458,2.22567 -2.51176,2.56856 -3.02061,6.47208 -3.02061,10.06464 0,3.9621 0.41501,8.26498 3.07375,11.20255 1.49208,1.64858 3.76453,2.47854 5.98807,2.47854 1.85514,0 3.69579,-0.70419 5.11868,-1.89453 1.38563,-1.15916 2.36721,-2.86219 2.41691,-4.66806 l -4.68715,0 c -0.0995,1.39352 -1.58953,2.39625 -2.9866,2.39625 -1.2289,0 -2.44534,-0.68524 -3.05888,-1.75003 -0.90243,-1.56618 -1.00332,-3.45655 -1.00332,-5.26412 0.45875,0.51272 0.89145,1.06095 1.44972,1.46304 0.93806,0.67563 2.1154,0.96733 3.27144,0.96733 2.00139,0 4.01664,-0.85367 5.32273,-2.37015 1.44386,-1.67641 2.03855,-3.95877 2.03855,-6.17125 0,-2.22179 -0.93931,-4.40838 -2.46156,-6.02674 -1.50558,-1.60064 -3.63967,-2.65314 -5.83715,-2.65314 z m 0.1403,3.95763 c 1.04096,0 2.00134,0.64749 2.59122,1.50518 0.62997,0.91602 0.95018,2.03509 0.95018,3.14683 0,1.10538 -0.33755,2.21621 -0.98419,3.11272 -0.61035,0.84617 -1.58405,1.47106 -2.62736,1.47106 -2.15971,0 -3.74972,-2.35383 -3.74972,-4.51354 0,-1.14714 0.36727,-2.29845 1.05434,-3.21707 0.65253,-0.87244 1.67605,-1.50518 2.76553,-1.50518 z m -17.7243,-23.79917 c -1.73606,0 -3.47211,0 -5.20817,0 0,-8.43723 0,-16.87446 0,-25.31169 1.73606,0 3.47211,0 5.20817,0 0,0 0,0 0,0 0,5.74056 0,11.48112 0,17.22168 3.3448,-5.74056 6.6896,-11.48112 10.0344,-17.22168 1.78234,0 3.56469,0 5.34703,0 1e-5,0 1e-5,0 1e-5,0 10e-6,0 10e-6,0 10e-6,0 l 0,25.31169 c 0,0 0,0 0,0 0,0 0,0 -10e-6,0 0,0 0,0 0,0 l -5.20814,0 c -1e-5,0 -1e-5,0 -1e-5,0 0,0 0,0 0,0 -1e-5,0 -1e-5,0 -1e-5,0 l 0,-17.49944 c -3.39109,5.83315 -6.78219,11.66629 -10.17328,17.49944 z m 29.2227,-16.97862 c 0,5.65954 0,11.31908 0,16.97862 -1.62032,0 -3.24064,0 -4.86096,0 0,-8.20575 0,-16.41151 0,-24.61726 1.07635,0 2.15271,0 3.22906,0 0.3567,1.36191 1.25065,2.58652 2.4652,3.2985 0,0 0,0 0,0 1.51014,0.88526 3.3188,1.11108 5.06929,1.11108 0,1.07635 0,2.15271 0,3.22906 -1.96753,0 -3.93506,0 -5.90259,0 z"
       copytype="single_stretched"
       prop_scale="1"
       scale_y_rel="false"
       spacing="0"
       normal_offset="0"
       tang_offset="0"
       prop_units="false"
       vertical_pattern="true"
       fuse_tolerance="0" />
    <clipPath
       clipPathUnits="userSpaceOnUse"
       id="clipPath7741">
      <path
         sodipodi:type="inkscape:offset"
         inkscape:radius="2.7336967"
         inkscape:original="M 404.96484 396.74219 C 398.99392 396.74219 394.1875 410.32898 394.1875 427.20508 C 394.1875 444.08118 398.99392 457.66602 404.96484 457.66602 L 532.17773 457.66602 C 538.14865 457.66602 542.95703 444.08118 542.95703 427.20508 C 542.95703 410.32898 538.14865 396.74219 532.17773 396.74219 L 404.96484 396.74219 z "
         xlink:href="#rect4136-1"
         style="fill:#cbcbcb;fill-opacity:1;stroke:none;stroke-width:9.69999981;stroke-miterlimit:4;stroke-dasharray:none;stroke-opacity:1"
         id="path7743"
         inkscape:href="#rect4136-1"
         d="m 404.96484,394.00781 c -2.52948,0 -4.69036,1.449 -6.29687,3.36328 -1.60651,1.91429 -2.861,4.40125 -3.9082,7.36133 -2.09442,5.92016 -3.30665,13.77508 -3.30665,22.47266 0,8.69757 1.2122,16.55099 3.30665,22.4707 1.04722,2.95986 2.30165,5.44723 3.9082,7.36133 1.60654,1.9141 3.76754,3.36328 6.29687,3.36328 l 127.21289,0 c 2.52934,0 4.69015,-1.44924 6.29688,-3.36328 1.60673,-1.91404 2.86071,-4.40146 3.9082,-7.36133 2.09498,-5.91973 3.3086,-13.77302 3.3086,-22.4707 0,-8.69768 -1.21365,-16.55248 -3.3086,-22.47266 -1.04747,-2.96009 -2.30151,-5.4471 -3.9082,-7.36133 -1.60669,-1.91422 -3.76739,-3.36328 -6.29688,-3.36328 l -127.21289,0 z"
         transform="matrix(0.99885387,0,0,1.0006656,0.62543616,-0.30644687)" />
    </clipPath>
    <clipPath
       clipPathUnits="userSpaceOnUse"
       id="clipPath4386-8">
      <path
         sodipodi:type="inkscape:offset"
         inkscape:radius="2.7336967"
         inkscape:original="M 404.96484 396.74219 C 398.99392 396.74219 394.1875 410.32898 394.1875 427.20508 C 394.1875 444.08118 398.99392 457.66602 404.96484 457.66602 L 532.17773 457.66602 C 538.14865 457.66602 542.95703 444.08118 542.95703 427.20508 C 542.95703 410.32898 538.14865 396.74219 532.17773 396.74219 L 404.96484 396.74219 z "
         xlink:href="#rect4136-1"
         style="fill:#cbcbcb;fill-opacity:1;stroke:none;stroke-width:9.69999981;stroke-miterlimit:4;stroke-dasharray:none;stroke-opacity:1"
         id="path4388-0"
         inkscape:href="#rect4136-1"
         d="m 404.96484,394.00781 c -2.52948,0 -4.69036,1.449 -6.29687,3.36328 -1.60651,1.91429 -2.861,4.40125 -3.9082,7.36133 -2.09442,5.92016 -3.30665,13.77508 -3.30665,22.47266 0,8.69757 1.2122,16.55099 3.30665,22.4707 1.04722,2.95986 2.30165,5.44723 3.9082,7.36133 1.60654,1.9141 3.76754,3.36328 6.29687,3.36328 l 127.21289,0 c 2.52934,0 4.69015,-1.44924 6.29688,-3.36328 1.60673,-1.91404 2.86071,-4.40146 3.9082,-7.36133 2.09498,-5.91973 3.3086,-13.77302 3.3086,-22.4707 0,-8.69768 -1.21365,-16.55248 -3.3086,-22.47266 -1.04747,-2.96009 -2.30151,-5.4471 -3.9082,-7.36133 -1.60669,-1.91422 -3.76739,-3.36328 -6.29688,-3.36328 l -127.21289,0 z"
         transform="matrix(0.99885387,0,0,1.0006656,-258.33934,-120.89367)" />
    </clipPath>
  </defs>
  <sodipodi:namedview
     id="base"
     pagecolor="#ffffff"
     bordercolor="#666666"
     borderopacity="1.0"
     inkscape:pageopacity="0.0"
     inkscape:pageshadow="2"
     inkscape:zoom="31.678384"
     inkscape:cx="1385.7794"
     inkscape:cy="99.556578"
     inkscape:document-units="px"
     inkscape:current-layer="layer1"
     showgrid="false"
     fit-margin-top="20"
     fit-margin-right="20"
     fit-margin-left="20"
     fit-margin-bottom="20"
     inkscape:window-width="1920"
     inkscape:window-height="1056"
     inkscape:window-x="0"
     inkscape:window-y="24"
     inkscape:window-maximized="1"
     inkscape:object-paths="true"
     inkscape:snap-intersection-paths="true"
     inkscape:object-nodes="true"
     inkscape:snap-smooth-nodes="true" />
  <metadata
     id="metadata4805">
    <rdf:RDF>
      <cc:Work
         rdf:about="">
        <dc:format>image/svg+xml</dc:format>
        <dc:type
           rdf:resource="http://purl.org/dc/dcmitype/StillImage" />
        <dc:title></dc:title>
      </cc:Work>
    </rdf:RDF>
  </metadata>
  <g
     inkscape:label="Layer 1"
     inkscape:groupmode="layer"
     id="layer1"
     transform="translate(253.87221,-323.09746)">
    <rect
       style="color:#000000;clip-rule:nonzero;display:inline;overflow:visible;visibility:visible;opacity:1;isolation:auto;mix-blend-mode:normal;color-interpolation:sRGB;color-interpolation-filters:linearRGB;solid-color:#000000;solid-opacity:1;fill:#ffffff;fill-opacity:1;fill-rule:nonzero;stroke:none;stroke-width:9.69999981;stroke-linecap:butt;stroke-linejoin:miter;stroke-miterlimit:4;stroke-dasharray:none;stroke-dashoffset:0;stroke-opacity:1;color-rendering:auto;image-rendering:auto;shape-rendering:auto;text-rendering:auto;enable-background:accumulate"
       id="rect4153"
       width="1757.1428"
       height="355.71429"
       x="-488.15793"
       y="258.40939"
       rx="0"
       ry="0" />
    <rect
       style="fill:#8d8d8d;fill-opacity:1;stroke:none;stroke-width:9.69999981;stroke-miterlimit:4;stroke-dasharray:none;stroke-opacity:1"
       id="rect4136"
       width="148.76967"
       height="60.924549"
       x="394.18661"
       y="396.74203"
       ry="20.913795"
       rx="25.27784" />
    <g
       id="g4149"
       transform="translate(-10.714256,0)">
      <rect
         ry="0"
         rx="0"
         y="420.64575"
         x="540.65649"
         height="13.117112"
         width="590.20673"
         id="rect4159-7"
         style="fill:#828282;fill-opacity:1;stroke:none;stroke-width:9.69999981;stroke-miterlimit:4;stroke-dasharray:none;stroke-opacity:1" />
      <rect
         ry="0"
         rx="0"
         y="420.64575"
         x="-172.29181"
         height="13.117112"
         width="604.74884"
         id="rect4159"
         style="fill:#828282;fill-opacity:1;stroke:none;stroke-width:9.69999981;stroke-miterlimit:4;stroke-dasharray:none;stroke-opacity:1" />
    </g>
    <path
       sodipodi:type="inkscape:offset"
       inkscape:radius="2.7336967"
       inkscape:original="M 404.96484 396.74219 C 398.99392 396.74219 394.1875 410.32898 394.1875 427.20508 C 394.1875 444.08118 398.99392 457.66602 404.96484 457.66602 L 532.17773 457.66602 C 538.14865 457.66602 542.95703 444.08118 542.95703 427.20508 C 542.95703 410.32898 538.14865 396.74219 532.17773 396.74219 L 404.96484 396.74219 z "
       xlink:href="#rect4136-1"
       style="fill:#cbcbcb;fill-opacity:1;stroke:none;stroke-width:9.69999981;stroke-miterlimit:4;stroke-dasharray:none;stroke-opacity:1"
       id="path4155"
       inkscape:href="#rect4136-1"
       d="m 404.96484,394.00781 c -2.52948,0 -4.69036,1.449 -6.29687,3.36328 -1.60651,1.91429 -2.861,4.40125 -3.9082,7.36133 -2.09442,5.92016 -3.30665,13.77508 -3.30665,22.47266 0,8.69757 1.2122,16.55099 3.30665,22.4707 1.04722,2.95986 2.30165,5.44723 3.9082,7.36133 1.60654,1.9141 3.76754,3.36328 6.29687,3.36328 l 127.21289,0 c 2.52934,0 4.69015,-1.44924 6.29688,-3.36328 1.60673,-1.91404 2.86071,-4.40146 3.9082,-7.36133 2.09498,-5.91973 3.3086,-13.77302 3.3086,-22.4707 0,-8.69768 -1.21365,-16.55248 -3.3086,-22.47266 -1.04747,-2.96009 -2.30151,-5.4471 -3.9082,-7.36133 -1.60669,-1.91422 -3.76739,-3.36328 -6.29688,-3.36328 l -127.21289,0 z"
       transform="matrix(0.99885387,0,0,1.0006656,0.62543157,-0.30644906)" />
    <path
       transform="matrix(-1,0,0,1,580.97861,120.58721)"
       style="fill:#000000;fill-opacity:1;stroke:none;stroke-width:9.69999981;stroke-miterlimit:4;stroke-dasharray:none;stroke-opacity:1"
       d="m 143.62547,273.37579 0,0.0136 c -3.05451,0.21545 -22.51192,14.26777 -22.51282,32.45674 0.002,18.18594 19.45881,33.73355 22.51282,33.94897 l 0,0.0193 0.0655,0 33.65773,0 c -3.08185,0.006 -5.58076,-14.8679 -5.5808,-33.21839 -1.4e-4,-18.35125 2.49882,-33.22657 5.5808,-33.22033 l -33.65773,0 -0.0655,0 z"
       id="path4326-9"
       inkscape:connector-curvature="0"
       clip-path="url(#clipPath4386-8)"
       sodipodi:nodetypes="cccccccscccc" />
    <rect
       style="fill:#939393;fill-opacity:1;stroke:none;stroke-width:9.69999981;stroke-miterlimit:4;stroke-dasharray:none;stroke-opacity:1"
       id="rect4136-1"
       width="148.76967"
       height="60.924549"
       x="394.18661"
       y="396.74203"
       ry="30.462275"
       rx="10.777832" />
    <rect
       transform="matrix(2.506556,0,0,1.5303294,-168.88428,-42.021002)"
       style="fill:#828282;fill-opacity:1;stroke:none;stroke-width:9.69999981;stroke-miterlimit:4;stroke-dasharray:none;stroke-opacity:1"
       id="rect4159-7-5"
       width="164.36243"
       height="8.5714302"
       x="276.61594"
       y="302.33148"
       rx="0"
       ry="0"
       clip-path="url(#clipPath4623)" />
    <rect
       style="fill:#de4848;fill-opacity:1;stroke:none;stroke-width:9.69999981;stroke-miterlimit:4;stroke-dasharray:none;stroke-opacity:1"
       id="rect4136-1-2"
       width="118.09212"
       height="47.41909"
       x="418.10495"
       y="403.49475"
       ry="23.709545"
       rx="8.5553532" />
    <path
       transform="translate(258.96479,120.58721)"
       style="fill:#000000;fill-opacity:1;stroke:none;stroke-width:9.69999981;stroke-miterlimit:4;stroke-dasharray:none;stroke-opacity:1"
       d="m 143.62547,273.37579 0,0.0136 c -3.05451,0.21545 -22.51192,14.26777 -22.51282,32.45674 0.002,18.18594 19.45881,33.73355 22.51282,33.94897 l 0,0.0193 0.0655,0 33.65773,0 c -3.08185,0.006 -5.58076,-14.8679 -5.5808,-33.21839 -1.4e-4,-18.35125 2.49882,-33.22657 5.5808,-33.22033 l -33.65773,0 -0.0655,0 z"
       id="path4326"
       inkscape:connector-curvature="0"
       clip-path="url(#clipPath4386)"
       sodipodi:nodetypes="cccccccscccc" />
    <path
       style="fill:#828282;fill-opacity:1;stroke:none;stroke-width:9.69999981;stroke-miterlimit:4;stroke-dasharray:none;stroke-opacity:1"
       d="m -184.12186,420.64575 c -0.81777,-0.001 -1.48092,2.93567 -1.48079,6.55874 0,3.62294 0.66315,6.55956 1.48079,6.55837 l 2.88491,0 c -0.81777,0.001 -1.4808,-2.93543 -1.48092,-6.55837 0,-3.62307 0.66315,-6.55996 1.48092,-6.55874 l -2.88491,0 z"
       id="path4326-4-2-4-5-3-4"
       inkscape:connector-curvature="0" />
    <path
       style="fill:#828282;fill-opacity:1;stroke:none;stroke-width:9.69999981;stroke-miterlimit:4;stroke-dasharray:none;stroke-opacity:1"
       d="m 1120.8328,420.64575 c 0.8177,-0.001 1.4809,2.93567 1.4807,6.55874 0,3.62294 -0.6631,6.55956 -1.4807,6.55837 l -2.885,0 c 0.8178,0.001 1.4808,-2.93543 1.481,-6.55837 0,-3.62307 -0.6632,-6.55996 -1.481,-6.55874 l 2.885,0 z"
       id="path4326-4-2-4-5-3-4-0"
       inkscape:connector-curvature="0" />
  </g>
</svg>
